<?xml version="1.0" encoding="UTF-8" ?>
<!DOCTYPE svg PUBLIC "-//W3C//DTD SVG 1.1//EN" "http://www.w3.org/Graphics/SVG/1.1/DTD/svg11.dtd">
<svg width="456pt" height="263pt" viewBox="0 0 456 263" version="1.1" xmlns="http://www.w3.org/2000/svg">
<g id="#ffffffff">
<path fill="#ffffff" opacity="1.00" d=" M 0.00 0.00 L 208.27 0.00 C 208.17 15.85 208.46 31.71 208.12 47.56 C 206.81 47.53 205.51 47.51 204.22 47.50 C 204.22 50.23 204.31 52.96 204.50 55.68 C 204.74 58.99 204.84 62.30 205.21 65.59 C 204.99 69.05 207.11 71.77 209.14 74.31 C 211.24 77.09 213.05 80.14 215.69 82.47 L 217.13 81.97 C 217.21 82.68 217.37 84.11 217.45 84.83 C 217.39 85.36 217.27 86.42 217.22 86.95 C 214.71 90.03 211.72 92.66 209.19 95.71 C 209.38 95.88 209.76 96.20 209.95 96.37 C 208.32 96.34 206.69 96.35 205.06 96.41 C 206.08 98.25 207.55 99.88 208.25 101.88 C 208.82 104.85 208.96 107.87 209.28 110.87 C 206.04 120.91 205.85 131.58 206.63 142.01 C 207.22 147.39 208.22 153.02 211.41 157.53 C 216.64 163.96 228.09 163.99 233.03 157.16 C 236.46 152.33 237.15 146.21 237.69 140.46 C 238.18 132.05 237.78 123.59 236.70 115.24 C 240.76 110.44 241.76 103.75 240.23 97.77 C 237.86 90.78 229.07 89.76 225.90 83.36 C 227.20 83.37 228.50 83.39 229.80 83.43 L 228.39 82.97 C 228.98 82.10 229.57 81.24 230.17 80.38 C 230.90 79.33 231.63 78.29 232.37 77.25 C 234.00 74.96 235.74 72.75 237.31 70.42 C 238.07 68.07 238.33 65.62 238.32 63.16 C 238.34 60.26 238.50 57.37 238.69 54.47 C 238.74 53.85 238.82 52.62 238.87 52.00 C 239.09 52.55 239.54 53.66 239.76 54.21 C 239.99 52.15 240.51 50.06 240.15 47.99 C 239.77 45.73 237.27 46.62 235.66 46.43 C 235.65 46.33 235.63 46.12 235.61 46.02 C 235.14 30.69 235.94 15.32 235.27 0.00 L 456.00 0.00 L 456.00 263.00 L 0.00 263.00 L 0.00 0.00 M 168.50 137.95 C 166.77 141.39 167.45 145.34 167.27 149.05 C 173.59 149.75 179.96 148.91 186.29 149.55 C 186.16 153.47 186.16 157.39 186.14 161.31 C 189.47 161.46 192.81 161.48 196.15 161.38 C 196.31 157.37 196.34 153.35 196.33 149.34 C 198.27 149.31 200.20 149.28 202.13 149.25 C 202.20 146.46 202.39 143.68 202.17 140.90 C 200.56 139.71 197.99 140.85 196.50 139.59 C 196.28 127.59 196.56 115.57 196.33 103.56 C 192.45 103.50 188.56 103.53 184.68 103.55 C 179.32 115.03 173.79 126.43 168.50 137.95 M 258.01 107.03 C 253.23 118.00 247.78 128.66 242.68 139.48 C 242.03 142.65 242.40 145.94 242.22 149.16 C 248.45 149.48 254.69 149.16 260.92 149.33 C 261.40 153.27 261.17 157.25 261.15 161.21 C 264.54 161.49 267.95 161.51 271.35 161.37 C 271.31 157.37 271.29 153.38 271.38 149.38 C 273.32 149.31 275.26 149.25 277.21 149.19 C 277.31 146.26 277.24 143.32 276.92 140.41 C 275.03 140.31 273.15 140.18 271.27 140.01 C 271.46 127.86 271.30 115.70 271.37 103.55 C 267.63 103.56 263.88 103.24 260.16 103.66 C 258.97 104.41 258.65 105.88 258.01 107.03 M 404.50 190.53 C 403.04 190.72 401.58 190.89 400.13 191.07 C 400.17 199.05 398.88 206.97 399.21 214.95 C 399.17 229.57 399.06 244.20 399.19 258.82 C 413.78 259.33 428.38 258.76 442.98 259.09 C 444.57 259.00 446.27 259.26 447.78 258.62 C 449.78 256.20 449.23 252.86 449.33 249.96 C 449.08 230.31 449.71 210.65 449.01 191.02 C 441.76 190.79 434.42 190.25 427.26 191.61 C 425.72 190.06 426.69 186.45 424.02 186.00 C 419.03 185.63 414.00 185.81 409.00 185.90 C 406.32 185.64 405.75 188.81 404.50 190.53 M 17.23 207.39 C 15.63 207.60 13.76 207.20 12.40 208.25 C 10.84 211.24 11.06 214.72 11.04 218.00 C 11.22 231.61 11.08 245.22 11.25 258.83 C 18.50 259.27 25.76 258.81 33.01 259.02 C 58.02 258.91 83.03 259.12 108.03 258.94 C 107.90 246.01 108.36 233.07 107.79 220.15 C 102.24 219.95 96.68 220.14 91.12 219.92 C 90.89 215.66 90.82 211.38 91.48 207.16 C 73.69 206.69 55.86 207.29 38.08 206.86 C 35.81 206.82 37.23 203.26 34.94 203.14 C 30.80 202.01 26.40 201.83 22.15 202.31 C 19.53 202.72 17.92 205.00 17.23 207.39 M 327.00 220.21 C 327.17 221.77 327.34 223.34 327.50 224.90 C 320.76 225.41 314.00 224.85 307.25 225.22 C 307.07 227.43 306.90 229.64 306.74 231.86 C 296.57 232.68 286.35 231.95 276.16 232.13 C 274.41 240.92 275.37 249.95 275.22 258.84 C 278.15 258.99 281.08 259.07 284.01 259.04 C 317.63 258.86 351.25 259.16 384.88 258.92 C 384.75 248.36 385.24 237.77 384.62 227.24 C 382.85 224.50 379.30 223.18 376.67 221.27 C 373.15 219.94 372.45 225.79 368.95 225.05 C 363.08 225.21 357.19 224.91 351.33 225.54 C 349.29 224.53 348.72 222.05 347.62 220.24 C 340.75 219.92 333.87 220.01 327.00 220.21 M 127.11 232.18 C 126.97 241.29 126.92 250.40 127.06 259.51 C 131.97 258.65 136.96 259.06 141.91 258.99 C 162.60 258.92 183.30 259.17 203.99 258.89 C 205.97 253.48 204.93 247.64 205.16 242.02 C 205.02 238.78 205.72 235.12 203.61 232.35 C 202.11 231.98 200.56 232.01 199.03 232.00 C 175.06 232.15 151.09 231.76 127.11 232.18 M 214.37 240.17 C 212.91 246.45 211.75 253.64 215.16 259.50 C 223.35 258.33 231.68 259.20 239.93 258.90 C 247.21 259.32 254.60 258.12 261.78 259.72 C 261.90 252.97 262.09 246.21 261.64 239.47 C 250.47 238.56 239.23 239.15 228.03 238.98 C 223.48 239.30 218.64 238.12 214.37 240.17 Z" />
<path fill="#ffffff" opacity="1.00" d=" M 184.34 122.98 C 184.79 121.76 185.37 120.60 186.24 119.63 C 186.33 126.47 186.20 133.32 186.16 140.17 C 183.00 140.28 179.83 140.27 176.67 140.13 C 178.93 134.28 182.15 128.86 184.34 122.98 Z" />
<path fill="#ffffff" opacity="1.00" d=" M 217.40 120.18 C 217.83 120.06 218.71 119.83 219.14 119.72 C 221.62 119.75 224.09 119.78 226.57 119.80 C 227.44 126.83 227.15 133.93 227.06 141.00 C 226.84 145.06 226.69 149.63 223.75 152.77 C 222.57 153.04 221.41 152.99 220.27 152.61 C 217.61 149.81 217.49 145.69 217.29 142.05 C 217.20 134.76 217.12 127.46 217.40 120.18 Z" />
</g>
<g id="#7e807fff">
<path fill="#7e807f" opacity="1.00" d=" M 208.27 0.00 L 209.94 0.00 C 209.88 14.45 209.89 28.90 209.91 43.35 C 212.01 41.69 214.04 39.83 216.54 38.79 C 222.36 37.01 229.35 38.33 233.27 43.24 C 230.93 44.26 228.96 42.43 226.86 41.71 C 224.48 40.90 221.94 40.39 219.42 40.60 C 215.80 41.82 212.48 44.20 210.57 47.57 C 209.96 47.57 208.73 47.56 208.12 47.56 C 208.46 31.71 208.17 15.85 208.27 0.00 Z" />
</g>
<g id="#fefefeff">
<path fill="#fefefe" opacity="1.00" d=" M 209.94 0.00 L 234.13 0.00 C 233.96 14.65 234.37 29.31 233.97 43.95 C 233.80 43.77 233.45 43.42 233.27 43.24 C 229.35 38.33 222.36 37.01 216.54 38.79 C 214.04 39.83 212.01 41.69 209.91 43.35 C 209.89 28.90 209.88 14.45 209.94 0.00 Z" />
</g>
<g id="#6d6c6bff">
<path fill="#6d6c6b" opacity="1.00" d=" M 234.13 0.00 L 235.27 0.00 C 235.94 15.32 235.14 30.69 235.61 46.02 C 234.74 46.09 233.00 46.23 232.13 46.30 C 228.95 46.26 225.78 45.99 222.61 46.25 C 219.25 48.92 214.52 47.30 210.57 47.57 C 212.48 44.20 215.80 41.82 219.42 40.60 C 221.94 40.39 224.48 40.90 226.86 41.71 C 228.96 42.43 230.93 44.26 233.27 43.24 C 233.45 43.42 233.80 43.77 233.97 43.95 C 234.37 29.31 233.96 14.65 234.13 0.00 Z" />
</g>
<g id="#2f231eff">
<path fill="#2f231e" opacity="1.00" d=" M 222.61 46.25 C 225.78 45.99 228.95 46.26 232.13 46.30 C 229.85 46.47 227.56 46.47 225.28 46.43 C 224.64 47.04 224.02 47.67 223.41 48.30 C 223.89 48.36 224.86 48.48 225.34 48.54 C 229.77 50.55 234.11 52.79 238.69 54.47 C 238.50 57.37 238.34 60.26 238.32 63.16 C 232.98 61.31 227.98 58.59 222.59 56.88 C 222.49 56.34 222.27 55.25 222.16 54.70 C 216.64 55.37 212.12 51.55 207.11 49.92 C 205.82 49.74 205.20 49.17 205.26 48.20 C 206.20 47.94 207.15 47.73 208.12 47.56 C 208.73 47.56 209.96 47.57 210.57 47.57 C 214.52 47.30 219.25 48.92 222.61 46.25 M 221.37 50.41 C 220.04 50.59 218.91 53.08 220.74 53.41 C 222.77 53.86 224.00 49.78 221.37 50.41 Z" />
</g>
<g id="#928a4bff">
<path fill="#928a4b" opacity="1.00" d=" M 232.13 46.30 C 233.00 46.23 234.74 46.09 235.61 46.02 C 235.63 46.12 235.65 46.33 235.66 46.43 L 235.94 47.82 C 232.38 47.50 228.84 47.95 225.34 48.54 C 224.86 48.48 223.89 48.36 223.41 48.30 C 224.02 47.67 224.64 47.04 225.28 46.43 C 227.56 46.47 229.85 46.47 232.13 46.30 Z" />
</g>
<g id="#fdf8b8ff">
<path fill="#fdf8b8" opacity="1.00" d=" M 235.66 46.43 C 237.27 46.62 239.77 45.73 240.15 47.99 C 240.51 50.06 239.99 52.15 239.76 54.21 C 239.54 53.66 239.09 52.55 238.87 52.00 C 238.93 50.71 239.00 49.43 239.08 48.15 C 238.29 48.07 236.72 47.91 235.94 47.82 L 235.66 46.43 Z" />
</g>
<g id="#d1b64dff">
<path fill="#d1b64d" opacity="1.00" d=" M 204.22 47.50 C 205.51 47.51 206.81 47.53 208.12 47.56 C 207.15 47.73 206.20 47.94 205.26 48.20 C 205.20 49.17 205.82 49.74 207.11 49.92 C 206.65 51.24 206.15 52.55 205.87 53.93 C 206.63 55.31 208.32 55.68 209.63 56.36 C 218.05 59.66 225.75 64.63 234.38 67.43 C 235.71 68.09 236.60 66.63 237.61 66.05 C 233.87 61.01 226.65 61.40 222.59 56.88 C 227.98 58.59 232.98 61.31 238.32 63.16 C 238.33 65.62 238.07 68.07 237.31 70.42 C 226.34 65.59 215.49 60.48 204.50 55.68 C 204.31 52.96 204.22 50.23 204.22 47.50 Z" />
</g>
<g id="#d8bf4bff">
<path fill="#d8bf4b" opacity="1.00" d=" M 225.34 48.54 C 228.84 47.95 232.38 47.50 235.94 47.82 C 236.72 47.91 238.29 48.07 239.08 48.15 C 239.00 49.43 238.93 50.71 238.87 52.00 C 238.82 52.62 238.74 53.85 238.69 54.47 C 234.11 52.79 229.77 50.55 225.34 48.54 M 231.92 49.22 C 233.28 50.42 234.69 51.57 236.12 52.68 C 236.92 51.83 237.69 50.95 238.44 50.06 C 237.13 47.43 234.11 49.13 231.92 49.22 Z" />
</g>
<g id="#e9c327ff">
<path fill="#e9c327" opacity="1.00" d=" M 231.92 49.22 C 234.11 49.13 237.13 47.43 238.44 50.06 C 237.69 50.95 236.92 51.83 236.12 52.68 C 234.69 51.57 233.28 50.42 231.92 49.22 Z" />
</g>
<g id="#efc61aff">
<path fill="#efc61a" opacity="1.00" d=" M 207.11 49.92 C 212.12 51.55 216.64 55.37 222.16 54.70 C 222.27 55.25 222.49 56.34 222.59 56.88 C 226.65 61.40 233.87 61.01 237.61 66.05 C 236.60 66.63 235.71 68.09 234.38 67.43 C 225.75 64.63 218.05 59.66 209.63 56.36 C 208.32 55.68 206.63 55.31 205.87 53.93 C 206.15 52.55 206.65 51.24 207.11 49.92 Z" />
</g>
<g id="#75746eff">
<path fill="#75746e" opacity="1.00" d=" M 221.37 50.41 C 224.00 49.78 222.77 53.86 220.74 53.41 C 218.91 53.08 220.04 50.59 221.37 50.41 Z" />
</g>
<g id="#2b221bff">
<path fill="#2b221b" opacity="1.00" d=" M 204.50 55.68 C 215.49 60.48 226.34 65.59 237.31 70.42 C 235.74 72.75 234.00 74.96 232.37 77.25 C 223.36 73.26 214.41 69.12 205.21 65.59 C 204.84 62.30 204.74 58.99 204.50 55.68 Z" />
</g>
<g id="#ebc51dff">
<path fill="#ebc51d" opacity="1.00" d=" M 205.21 65.59 C 214.41 69.12 223.36 73.26 232.37 77.25 C 231.63 78.29 230.90 79.33 230.17 80.38 C 228.14 80.46 226.10 80.54 224.07 80.57 C 219.07 78.54 214.43 75.53 209.14 74.31 C 207.11 71.77 204.99 69.05 205.21 65.59 Z" />
</g>
<g id="#28210eff">
<path fill="#28210e" opacity="1.00" d=" M 209.14 74.31 C 214.43 75.53 219.07 78.54 224.07 80.57 C 224.37 80.89 224.98 81.51 225.28 81.82 C 222.60 81.17 219.71 80.66 217.13 81.97 L 215.69 82.47 C 213.05 80.14 211.24 77.09 209.14 74.31 Z" />
</g>
<g id="#b7ac58ff">
<path fill="#b7ac58" opacity="1.00" d=" M 224.07 80.57 C 226.10 80.54 228.14 80.46 230.17 80.38 C 229.57 81.24 228.98 82.10 228.39 82.97 C 227.34 82.61 226.31 82.22 225.28 81.82 C 224.98 81.51 224.37 80.89 224.07 80.57 Z" />
</g>
<g id="#6a6a6aff">
<path fill="#6a6a6a" opacity="1.00" d=" M 217.13 81.97 C 219.71 80.66 222.60 81.17 225.28 81.82 C 226.31 82.22 227.34 82.61 228.39 82.97 L 229.80 83.43 C 228.50 83.39 227.20 83.37 225.90 83.36 C 229.07 89.76 237.86 90.78 240.23 97.77 C 241.76 103.75 240.76 110.44 236.70 115.24 C 235.59 111.78 233.71 108.66 231.63 105.71 C 230.70 102.63 229.79 99.37 227.27 97.18 C 225.82 95.62 224.24 94.20 222.64 92.80 C 224.08 91.03 226.46 89.50 226.42 86.98 C 225.70 85.16 224.04 83.62 222.01 83.56 C 220.12 83.64 219.26 85.48 218.13 86.69 C 217.90 86.07 217.67 85.45 217.45 84.83 C 217.37 84.11 217.21 82.68 217.13 81.97 Z" />
</g>
<g id="#afafafff">
<path fill="#afafaf" opacity="1.00" d=" M 218.13 86.69 C 219.26 85.48 220.12 83.64 222.01 83.56 C 224.04 83.62 225.70 85.16 226.42 86.98 C 226.46 89.50 224.08 91.03 222.64 92.80 C 224.24 94.20 225.82 95.62 227.27 97.18 C 224.81 96.11 222.43 94.86 220.19 93.39 C 217.95 94.72 215.74 96.10 213.57 97.55 C 214.51 99.43 215.45 101.32 216.39 103.22 C 221.59 102.21 227.27 102.31 231.63 105.71 C 233.71 108.66 235.59 111.78 236.70 115.24 C 237.78 123.59 238.18 132.05 237.69 140.46 C 237.15 146.21 236.46 152.33 233.03 157.16 C 228.09 163.99 216.64 163.96 211.41 157.53 C 208.22 153.02 207.22 147.39 206.63 142.01 C 205.85 131.58 206.04 120.91 209.28 110.87 C 210.48 115.62 214.42 118.81 219.14 119.72 C 218.71 119.83 217.83 120.06 217.40 120.18 C 217.12 127.46 217.20 134.76 217.29 142.05 C 217.49 145.69 217.61 149.81 220.27 152.61 C 221.41 152.99 222.57 153.04 223.75 152.77 C 226.69 149.63 226.84 145.06 227.06 141.00 C 227.15 133.93 227.44 126.83 226.57 119.80 C 226.09 117.64 226.13 115.12 224.58 113.39 C 222.22 111.90 219.47 111.20 216.90 110.18 C 215.27 105.34 214.53 99.44 209.95 96.37 C 209.76 96.20 209.38 95.88 209.19 95.71 C 211.72 92.66 214.71 90.03 217.22 86.95 C 217.27 86.42 217.39 85.36 217.45 84.83 C 217.67 85.45 217.90 86.07 218.13 86.69 M 222.11 85.13 C 220.20 86.79 221.59 89.01 223.87 89.05 C 224.07 87.31 224.42 85.26 222.11 85.13 Z" />
<path fill="#afafaf" opacity="1.00" d=" M 168.50 137.95 C 173.79 126.43 179.32 115.03 184.68 103.55 C 188.56 103.53 192.45 103.50 196.33 103.56 C 196.56 115.57 196.28 127.59 196.50 139.59 C 197.99 140.85 200.56 139.71 202.17 140.90 C 202.39 143.68 202.20 146.46 202.13 149.25 C 200.20 149.28 198.27 149.31 196.33 149.34 C 196.34 153.35 196.31 157.37 196.15 161.38 C 192.81 161.48 189.47 161.46 186.14 161.31 C 186.16 157.39 186.16 153.47 186.29 149.55 C 179.96 148.91 173.59 149.75 167.27 149.05 C 167.45 145.34 166.77 141.39 168.50 137.95 M 184.34 122.98 C 182.15 128.86 178.93 134.28 176.67 140.13 C 179.83 140.27 183.00 140.28 186.16 140.17 C 186.20 133.32 186.33 126.47 186.24 119.63 C 185.37 120.60 184.79 121.76 184.34 122.98 Z" />
<path fill="#afafaf" opacity="1.00" d=" M 258.01 107.03 C 258.65 105.88 258.97 104.41 260.16 103.66 C 263.88 103.24 267.63 103.56 271.37 103.55 C 271.30 115.70 271.46 127.86 271.27 140.01 C 273.15 140.18 275.03 140.31 276.92 140.41 C 277.24 143.32 277.31 146.26 277.21 149.19 C 275.26 149.25 273.32 149.31 271.38 149.38 C 271.29 153.38 271.31 157.37 271.35 161.37 C 267.95 161.51 264.54 161.49 261.15 161.21 C 261.17 157.25 261.40 153.27 260.92 149.33 C 254.69 149.16 248.45 149.48 242.22 149.16 C 242.40 145.94 242.03 142.65 242.68 139.48 C 247.78 128.66 253.23 118.00 258.01 107.03 M 251.83 140.14 C 254.93 140.31 258.04 140.36 261.15 140.29 C 261.17 133.41 261.44 126.53 261.21 119.66 C 257.85 126.36 254.64 133.18 251.83 140.14 Z" />
</g>
<g id="#908e93ff">
<path fill="#908e93" opacity="1.00" d=" M 222.11 85.13 C 224.42 85.26 224.07 87.31 223.87 89.05 C 221.59 89.01 220.20 86.79 222.11 85.13 Z" />
</g>
<g id="#fdfdfdff">
<path fill="#fdfdfd" opacity="1.00" d=" M 220.19 93.39 C 222.43 94.86 224.81 96.11 227.27 97.18 C 229.79 99.37 230.70 102.63 231.63 105.71 C 227.27 102.31 221.59 102.21 216.39 103.22 C 215.45 101.32 214.51 99.43 213.57 97.55 C 215.74 96.10 217.95 94.72 220.19 93.39 Z" />
<path fill="#fdfdfd" opacity="1.00" d=" M 251.83 140.14 C 254.64 133.18 257.85 126.36 261.21 119.66 C 261.44 126.53 261.17 133.41 261.15 140.29 C 258.04 140.36 254.93 140.31 251.83 140.14 Z" />
</g>
<g id="#696969ff">
<path fill="#696969" opacity="1.00" d=" M 205.06 96.41 C 206.69 96.35 208.32 96.34 209.95 96.37 C 214.53 99.44 215.27 105.34 216.90 110.18 C 219.47 111.20 222.22 111.90 224.58 113.39 C 226.13 115.12 226.09 117.64 226.57 119.80 C 224.09 119.78 221.62 119.75 219.14 119.72 C 214.42 118.81 210.48 115.62 209.28 110.87 C 208.96 107.87 208.82 104.85 208.25 101.88 C 207.55 99.88 206.08 98.25 205.06 96.41 Z" />
</g>
<g id="#f1f1f1ff">
<path fill="#f1f1f1" opacity="1.00" d=" M 404.50 190.53 C 405.75 188.81 406.32 185.64 409.00 185.90 C 414.00 185.81 419.03 185.63 424.02 186.00 C 426.69 186.45 425.72 190.06 427.26 191.61 C 434.42 190.25 441.76 190.79 449.01 191.02 C 449.71 210.65 449.08 230.31 449.33 249.96 C 449.23 252.86 449.78 256.20 447.78 258.62 C 446.27 259.26 444.57 259.00 442.98 259.09 C 428.38 258.76 413.78 259.33 399.19 258.82 C 399.06 244.20 399.17 229.57 399.21 214.95 C 398.88 206.97 400.17 199.05 400.13 191.07 C 401.58 190.89 403.04 190.72 404.50 190.53 Z" />
<path fill="#f1f1f1" opacity="1.00" d=" M 17.23 207.39 C 17.92 205.00 19.53 202.72 22.15 202.31 C 26.40 201.83 30.80 202.01 34.94 203.14 C 37.23 203.26 35.81 206.82 38.08 206.86 C 55.86 207.29 73.69 206.69 91.48 207.16 C 90.82 211.38 90.89 215.66 91.12 219.92 C 96.68 220.14 102.24 219.95 107.79 220.15 C 108.36 233.07 107.90 246.01 108.03 258.94 C 83.03 259.12 58.02 258.91 33.01 259.02 C 25.76 258.81 18.50 259.27 11.25 258.83 C 11.08 245.22 11.22 231.61 11.04 218.00 C 11.06 214.72 10.84 211.24 12.40 208.25 C 13.76 207.20 15.63 207.60 17.23 207.39 Z" />
<path fill="#f1f1f1" opacity="1.00" d=" M 327.00 220.21 C 333.87 220.01 340.75 219.92 347.62 220.24 C 348.72 222.05 349.29 224.53 351.33 225.54 C 357.19 224.91 363.08 225.21 368.95 225.05 C 372.45 225.79 373.15 219.94 376.67 221.27 C 379.30 223.18 382.85 224.50 384.62 227.24 C 385.24 237.77 384.75 248.36 384.88 258.92 C 351.25 259.16 317.63 258.86 284.01 259.04 C 281.08 259.07 278.15 258.99 275.22 258.84 C 275.37 249.95 274.41 240.92 276.16 232.13 C 286.35 231.95 296.57 232.68 306.74 231.86 C 306.90 229.64 307.07 227.43 307.25 225.22 C 314.00 224.85 320.76 225.41 327.50 224.90 C 327.34 223.34 327.17 221.77 327.00 220.21 Z" />
<path fill="#f1f1f1" opacity="1.00" d=" M 127.11 232.18 C 151.09 231.76 175.06 232.15 199.03 232.00 C 200.56 232.01 202.11 231.98 203.61 232.35 C 205.72 235.12 205.02 238.78 205.16 242.02 C 204.93 247.64 205.97 253.48 203.99 258.89 C 183.30 259.17 162.60 258.92 141.91 258.99 C 136.96 259.06 131.97 258.65 127.06 259.51 C 126.92 250.40 126.97 241.29 127.11 232.18 Z" />
<path fill="#f1f1f1" opacity="1.00" d=" M 214.37 240.17 C 218.64 238.12 223.48 239.30 228.03 238.98 C 239.23 239.15 250.47 238.56 261.64 239.47 C 262.09 246.21 261.90 252.97 261.78 259.72 C 254.60 258.12 247.21 259.32 239.93 258.90 C 231.68 259.20 223.35 258.33 215.16 259.50 C 211.75 253.64 212.91 246.45 214.37 240.17 Z" />
</g>
</svg>
